HIERARCHY
ROOT Joint1
{
	OFFSET 0.000000 0.000000 0.000000
	CHANNELS 6 Xposition Yposition Zposition Xrotation Yrotation Zrotation
	JOINT Joint2
	{
		OFFSET -0.000000 0.000000 1.456275
		CHANNELS 6 Xposition Yposition Zposition Xrotation Yrotation Zrotation
		JOINT Joint3
		{
			OFFSET -0.000000 0.000002 1.471446
			CHANNELS 6 Xposition Yposition Zposition Xrotation Yrotation Zrotation
			JOINT Joint4
			{
				OFFSET 0.625745 0.000000 0.917755
				CHANNELS 6 Xposition Yposition Zposition Xrotation Yrotation Zrotation
				JOINT Joint5
				{
					OFFSET -0.629534 0.000001 0.940221
					CHANNELS 6 Xposition Yposition Zposition Xrotation Yrotation Zrotation
					JOINT Joint6
					{
						OFFSET -0.000001 0.113772 1.960660
						CHANNELS 6 Xposition Yposition Zposition Xrotation Yrotation Zrotation
						JOINT Joint7
						{
							OFFSET -0.669733 -0.113771 0.388340
							CHANNELS 6 Xposition Yposition Zposition Xrotation Yrotation Zrotation
							End Site
							{
								OFFSET 0.005509 0.005509 0.438980
							}
						}
					}
				}
			}
		}
	}
}
MOTION
Frames: 9
Frame Time: 0.041667
0.000000 0.000000 0.000000 -0.000000 1.019410 -19.103892 -0.000000 0.000000 1.456275 0.000000 -65.755973 0.000002 -0.000000 0.000002 1.471446 -0.000009 -1.133454 131.077833 0.625744 0.000000 0.917755 0.000002 4.464266 -0.000000 -0.629534 0.000001 0.940220 0.000000 1.709736 132.957419 -0.000001 0.113772 1.960661 -88.303875 135.538383 0.000003 -0.669733 -0.113772 0.388341 -0.222650 3.444424 106.657181 
0.000000 0.000000 0.000000 -0.000000 1.019410 -19.089773 -0.000000 -0.000000 1.456275 0.000002 -65.740605 0.000006 -0.000000 0.000002 1.471445 -0.000008 -1.133454 130.980885 0.625744 0.000001 0.917755 -0.000002 4.560808 0.000000 -0.629534 0.000001 0.940221 -0.000003 1.709736 132.859091 -0.000001 0.113772 1.960661 -88.303875 135.504683 0.000004 -0.669733 -0.113770 0.388340 -0.222982 3.444604 106.678109 
0.000000 0.000000 0.000000 -0.000000 1.019410 -19.066085 -0.000000 0.000000 1.456275 -0.000001 -65.714828 -0.000000 -0.000000 0.000002 1.471446 -0.000011 -1.133455 130.818231 0.625745 0.000000 0.917755 0.000003 4.722780 -0.000001 -0.629533 0.000001 0.940221 0.000000 1.709738 132.694128 -0.000001 0.113772 1.960661 -88.303882 135.448170 0.000004 -0.669733 -0.113772 0.388341 -0.223529 3.444898 106.713223 
0.000000 0.000000 0.000000 -0.000000 1.019410 -19.032703 -0.000000 0.000000 1.456275 -0.000001 -65.678498 0.000003 -0.000000 0.000002 1.471446 -0.000010 -1.133454 130.588982 0.625745 0.000000 0.917755 0.000004 4.951055 -0.000002 -0.629534 0.000001 0.940221 -0.000002 1.709739 132.461629 -0.000000 0.113772 1.960660 -88.303875 135.368503 0.000002 -0.669733 -0.113771 0.388340 -0.224303 3.445312 106.762714 
0.000000 0.000000 0.000000 -0.000000 1.019410 -18.989493 -0.000000 -0.000000 1.456275 -0.000000 -65.631479 0.000001 -0.000001 0.000002 1.471446 -0.000011 -1.133457 130.292279 0.625744 0.000000 0.917755 0.000000 5.246506 -0.000002 -0.629534 0.000001 0.940221 -0.000002 1.709738 132.160732 -0.000001 0.113772 1.960661 -88.303882 135.265394 0.000003 -0.669734 -0.113771 0.388341 -0.225307 3.445849 106.826747 
0.000000 0.000000 0.000000 -0.000000 1.019410 -18.936334 -0.000000 0.000000 1.456275 0.000002 -65.573620 0.000004 -0.000000 0.000002 1.471445 -0.000010 -1.133451 129.927246 0.625745 0.000001 0.917755 -0.000002 5.610012 -0.000003 -0.629534 0.000001 0.940221 -0.000001 1.709738 131.790522 -0.000001 0.113772 1.960660 -88.303882 135.138530 0.000007 -0.669733 -0.113771 0.388339 -0.226543 3.446509 106.905554 
0.000000 0.000000 0.000000 -0.000000 1.019410 -18.873093 -0.000000 -0.000000 1.456275 -0.000001 -65.504799 0.000005 -0.000000 0.000002 1.471446 -0.000009 -1.133458 129.492983 0.625745 0.000001 0.917755 -0.000001 6.042437 0.000001 -0.629533 0.000001 0.940221 -0.000001 1.709737 131.350098 -0.000001 0.113772 1.960661 -88.303882 134.987624 0.000004 -0.669733 -0.113772 0.388341 -0.228012 3.447284 106.999305 
0.000000 0.000000 0.000000 -0.000000 1.019410 -18.799647 -0.000000 0.000000 1.456275 0.000004 -65.424873 -0.000000 -0.000000 0.000002 1.471446 -0.000010 -1.133451 128.988628 0.625745 0.000001 0.917755 0.000000 6.544664 -0.000000 -0.629534 0.000001 0.940221 -0.000001 1.709736 130.838598 -0.000001 0.113772 1.960660 -88.303875 134.812361 0.000001 -0.669733 -0.113770 0.388340 -0.229721 3.448196 107.108172 
0.000000 0.000000 0.000000 -0.000000 1.019410 -18.715862 -0.000000 0.000000 1.456275 -0.000000 -65.333690 0.000001 -0.000000 0.000002 1.471446 -0.000007 -1.133456 128.413307 0.625745 0.000000 0.917755 0.000001 7.117559 0.000003 -0.629534 0.000001 0.940221 -0.000002 1.709736 130.255136 -0.000001 0.113772 1.960661 -88.303875 134.612428 0.000001 -0.669733 -0.113771 0.388340 -0.231670 3.449222 107.232365 
